<svg xmlns="http://www.w3.org/2000/svg" xmlns:xlink="http://www.w3.org/1999/xlink" width="500" zoomAndPan="magnify" viewBox="0 0 375 187.499995" height="250" preserveAspectRatio="xMidYMid meet" version="1.0"><defs><g/><clipPath id="f765d0f7d3"><path d="M 0.5 0 L 374.5 0 L 374.5 187 L 0.5 187 Z M 0.5 0 " clip-rule="nonzero"/></clipPath><clipPath id="49c8489e83"><path d="M 26.019531 30.710938 L 165.148438 30.710938 L 165.148438 139.566406 L 26.019531 139.566406 Z M 26.019531 30.710938 " clip-rule="nonzero"/></clipPath></defs><g clip-path="url(#f765d0f7d3)"><path fill="#ffffff" d="M 0.5 0 L 374.5 0 L 374.5 187 L 0.5 187 Z M 0.5 0 " fill-opacity="1" fill-rule="nonzero"/><path fill="#ffffff" d="M 0.5 0 L 374.5 0 L 374.5 187 L 0.5 187 Z M 0.5 0 " fill-opacity="1" fill-rule="nonzero"/></g><path fill="#44d62c" d="M 81.003906 46.570312 C 59.796875 46.570312 42.546875 63.824219 42.546875 85.03125 C 42.546875 106.234375 59.796875 123.484375 81.003906 123.484375 C 102.210938 123.484375 119.460938 106.234375 119.460938 85.03125 C 119.460938 63.824219 102.210938 46.570312 81.003906 46.570312 Z M 81.003906 126.976562 C 57.875 126.976562 39.054688 108.160156 39.054688 85.03125 C 39.054688 61.902344 57.875 43.082031 81.003906 43.082031 C 104.132812 43.082031 122.953125 61.902344 122.953125 85.03125 C 122.953125 108.160156 104.132812 126.976562 81.003906 126.976562 " fill-opacity="1" fill-rule="nonzero"/><path fill="#44d62c" d="M 89.789062 86.773438 L 109.714844 95.027344 C 110.625 92.421875 111.191406 89.652344 111.351562 86.773438 Z M 82.75 76.253906 L 91.007812 56.320312 C 88.398438 55.40625 85.625 54.839844 82.75 54.679688 Z M 79.257812 76.253906 L 79.257812 54.679688 C 76.382812 54.839844 73.609375 55.40625 71 56.320312 Z M 50.65625 83.285156 L 72.234375 83.285156 L 52.296875 75.03125 C 51.382812 77.640625 50.820312 80.410156 50.65625 83.285156 Z M 79.257812 93.804688 L 71 113.738281 C 73.609375 114.648438 76.382812 115.21875 79.257812 115.378906 Z M 82.75 93.804688 L 82.75 115.378906 C 85.625 115.21875 88.398438 114.648438 91.007812 113.738281 Z M 108.375 98.253906 L 88.453125 90.003906 L 103.691406 105.242188 C 105.554688 103.148438 107.140625 100.800781 108.375 98.253906 Z M 101.21875 107.714844 L 85.976562 92.472656 L 94.234375 112.398438 C 96.78125 111.164062 99.128906 109.578125 101.21875 107.714844 Z M 67.777344 112.398438 L 76.027344 92.480469 L 60.792969 107.714844 C 62.882812 109.582031 65.230469 111.164062 67.777344 112.398438 Z M 58.320312 105.242188 L 73.5625 90 L 53.636719 98.253906 C 54.871094 100.800781 56.453125 103.152344 58.320312 105.242188 Z M 52.296875 95.027344 L 72.222656 86.773438 L 50.65625 86.773438 C 50.820312 89.652344 51.382812 92.421875 52.296875 95.027344 Z M 53.636719 71.804688 L 73.5625 80.058594 L 58.320312 64.8125 C 56.453125 66.90625 54.871094 69.253906 53.636719 71.804688 Z M 60.792969 62.339844 L 76.027344 77.578125 L 67.777344 57.660156 C 65.230469 58.894531 62.882812 60.476562 60.792969 62.339844 Z M 94.234375 57.660156 L 85.976562 77.585938 L 101.21875 62.34375 C 99.128906 60.476562 96.78125 58.894531 94.234375 57.660156 Z M 103.691406 64.816406 L 88.453125 80.054688 L 108.375 71.804688 C 107.136719 69.253906 105.554688 66.90625 103.691406 64.816406 Z M 109.710938 75.03125 L 89.777344 83.285156 L 111.351562 83.285156 C 111.191406 80.410156 110.625 77.640625 109.710938 75.03125 Z M 112.292969 98.050781 C 110.609375 102.085938 108.164062 105.726562 105.140625 108.796875 C 105.089844 108.867188 105.035156 108.933594 104.972656 108.996094 C 104.910156 109.058594 104.839844 109.117188 104.769531 109.167969 C 101.691406 112.203125 98.035156 114.648438 93.984375 116.335938 C 93.980469 116.339844 93.980469 116.339844 93.976562 116.339844 C 93.972656 116.34375 93.96875 116.34375 93.964844 116.34375 C 89.96875 118.003906 85.59375 118.921875 81.003906 118.921875 C 76.417969 118.921875 72.039062 118.003906 68.046875 116.34375 C 68.042969 116.34375 68.039062 116.34375 68.035156 116.339844 C 68.03125 116.339844 68.027344 116.339844 68.027344 116.335938 C 63.96875 114.648438 60.308594 112.195312 57.226562 109.15625 C 57.160156 109.105469 57.097656 109.054688 57.039062 108.996094 C 56.984375 108.9375 56.933594 108.878906 56.886719 108.816406 C 53.851562 105.738281 51.402344 102.089844 49.714844 98.046875 C 49.707031 98.03125 49.699219 98.015625 49.691406 98 C 49.683594 97.976562 49.675781 97.957031 49.671875 97.9375 C 48.023438 93.957031 47.113281 89.597656 47.113281 85.03125 C 47.113281 80.472656 48.019531 76.121094 49.660156 72.148438 C 49.671875 72.117188 49.679688 72.089844 49.691406 72.058594 C 49.699219 72.042969 49.707031 72.027344 49.714844 72.011719 C 51.402344 67.96875 53.851562 64.324219 56.878906 61.25 C 56.925781 61.1875 56.980469 61.121094 57.039062 61.0625 C 57.101562 61 57.164062 60.945312 57.234375 60.898438 C 60.3125 57.863281 63.964844 55.414062 68.015625 53.726562 C 68.019531 53.722656 68.027344 53.71875 68.035156 53.71875 C 68.042969 53.714844 68.050781 53.710938 68.058594 53.707031 C 72.050781 52.050781 76.421875 51.136719 81.003906 51.136719 C 85.585938 51.136719 89.960938 52.050781 93.953125 53.707031 C 93.960938 53.710938 93.96875 53.714844 93.976562 53.71875 C 93.980469 53.71875 93.988281 53.722656 93.996094 53.726562 C 98.039062 55.410156 101.6875 57.855469 104.761719 60.882812 C 104.835938 60.9375 104.90625 60.996094 104.972656 61.0625 C 105.039062 61.128906 105.097656 61.195312 105.148438 61.269531 C 108.167969 64.339844 110.609375 67.980469 112.292969 72.011719 C 112.300781 72.027344 112.3125 72.042969 112.320312 72.058594 C 112.332031 72.089844 112.339844 72.117188 112.351562 72.148438 C 113.988281 76.121094 114.894531 80.472656 114.894531 85.03125 C 114.894531 89.597656 113.984375 93.957031 112.339844 97.9375 C 112.332031 97.957031 112.328125 97.976562 112.320312 98 C 112.3125 98.015625 112.300781 98.03125 112.292969 98.050781 " fill-opacity="1" fill-rule="nonzero"/><g clip-path="url(#49c8489e83)"><path fill="#44d62c" d="M 143.003906 109.390625 C 143.003906 111.234375 144.5 112.726562 146.339844 112.726562 L 156.648438 112.726562 L 156.648438 101.289062 L 146.339844 101.289062 C 144.5 101.289062 143.003906 102.785156 143.003906 104.625 Z M 146.339844 97.796875 L 158.394531 97.796875 C 159.359375 97.796875 160.140625 98.578125 160.140625 99.542969 L 160.140625 101.351562 L 163.53125 101.351562 C 164.492188 101.351562 165.277344 102.132812 165.277344 103.097656 C 165.277344 104.0625 164.492188 104.84375 163.53125 104.84375 L 160.140625 104.84375 L 160.140625 109.171875 L 163.53125 109.171875 C 164.492188 109.171875 165.277344 109.957031 165.277344 110.917969 C 165.277344 111.882812 164.492188 112.664062 163.53125 112.664062 L 160.140625 112.664062 L 160.140625 114.472656 C 160.140625 115.4375 159.359375 116.21875 158.394531 116.21875 L 146.339844 116.21875 C 142.578125 116.21875 139.515625 113.15625 139.515625 109.390625 L 139.515625 108.75 L 135.851562 108.75 C 132.300781 108.75 129.011719 110.628906 127.046875 113.761719 C 116.828125 130.132812 99.1875 139.558594 79.980469 139.335938 C 51.757812 138.820312 27.871094 115.464844 26.730469 87.28125 C 26.125 72.328125 31.488281 58.171875 41.824219 47.40625 C 52.164062 36.640625 66.078125 30.710938 81.003906 30.710938 C 106.980469 30.710938 129.417969 49.195312 134.335938 74.664062 C 135.300781 79.660156 139.570312 83.285156 144.484375 83.285156 L 163.53125 83.285156 C 164.492188 83.285156 165.277344 84.066406 165.277344 85.03125 C 165.277344 85.996094 164.492188 86.773438 163.53125 86.773438 L 144.484375 86.773438 C 137.902344 86.773438 132.191406 81.964844 130.910156 75.328125 C 126.304688 51.5 105.316406 34.203125 81.003906 34.203125 C 67.039062 34.203125 54.015625 39.75 44.34375 49.828125 C 34.671875 59.898438 29.652344 73.144531 30.222656 87.136719 C 31.285156 113.507812 53.636719 135.359375 80.046875 135.847656 C 98.0625 136.191406 114.519531 127.234375 124.085938 111.914062 C 126.695312 107.746094 131.089844 105.261719 135.851562 105.261719 L 139.515625 105.261719 L 139.515625 104.625 C 139.515625 100.859375 142.578125 97.796875 146.339844 97.796875 " fill-opacity="1" fill-rule="nonzero"/></g><g fill="#44d62c" fill-opacity="1"><g transform="translate(157.029356, 100.10008)"><g><path d="M 5.421875 0 L 5.421875 -32.625 L 22.03125 -32.625 C 26.257812 -32.625 29.488281 -31.835938 31.71875 -30.265625 C 33.957031 -28.691406 35.078125 -26.394531 35.078125 -23.375 C 35.078125 -21.425781 34.59375 -19.757812 33.625 -18.375 C 32.65625 -16.988281 31.25 -15.914062 29.40625 -15.15625 C 27.570312 -14.394531 25.34375 -13.972656 22.71875 -13.890625 L 23.1875 -14.25 L 24.15625 -14.203125 C 25.425781 -14.140625 26.550781 -13.816406 27.53125 -13.234375 C 28.519531 -12.648438 29.445312 -11.753906 30.3125 -10.546875 L 37.578125 0 L 32.53125 0 L 25.6875 -10.1875 C 25.101562 -11.019531 24.515625 -11.671875 23.921875 -12.140625 C 23.335938 -12.617188 22.613281 -12.953125 21.75 -13.140625 C 20.882812 -13.328125 19.773438 -13.421875 18.421875 -13.421875 L 9.859375 -13.421875 L 9.859375 0 Z M 9.859375 -16.890625 L 21.703125 -16.890625 C 24.816406 -16.890625 27.082031 -17.398438 28.5 -18.421875 C 29.925781 -19.441406 30.640625 -20.984375 30.640625 -23.046875 C 30.640625 -25.140625 29.921875 -26.65625 28.484375 -27.59375 C 27.046875 -28.539062 24.753906 -29.015625 21.609375 -29.015625 L 9.859375 -29.015625 Z M 9.859375 -16.890625 "/></g></g></g><g fill="#44d62c" fill-opacity="1"><g transform="translate(196.406087, 100.10008)"><g><path d="M 5.421875 0 L 5.421875 -32.625 L 31.1875 -32.625 L 31.1875 -28.96875 L 9.765625 -28.96875 L 9.765625 -18.375 L 29.578125 -18.375 L 29.578125 -14.765625 L 9.765625 -14.765625 L 9.765625 -3.65625 L 31.1875 -3.65625 L 31.1875 0 Z M 5.421875 0 "/></g></g></g><g fill="#44d62c" fill-opacity="1"><g transform="translate(230.878087, 100.10008)"><g><path d="M 23.609375 0.421875 C 19.472656 0.421875 15.921875 -0.222656 12.953125 -1.515625 C 9.992188 -2.816406 7.726562 -4.707031 6.15625 -7.1875 C 4.582031 -9.675781 3.796875 -12.695312 3.796875 -16.25 C 3.796875 -19.757812 4.554688 -22.769531 6.078125 -25.28125 C 7.609375 -27.800781 9.804688 -29.722656 12.671875 -31.046875 C 15.546875 -32.378906 18.941406 -33.046875 22.859375 -33.046875 C 24.835938 -33.046875 26.691406 -32.875 28.421875 -32.53125 C 30.148438 -32.195312 31.753906 -31.703125 33.234375 -31.046875 C 34.710938 -30.398438 36.007812 -29.585938 37.125 -28.609375 L 35.265625 -25.21875 C 33.503906 -26.582031 31.628906 -27.578125 29.640625 -28.203125 C 27.648438 -28.835938 25.40625 -29.15625 22.90625 -29.15625 C 18.3125 -29.15625 14.75 -28.046875 12.21875 -25.828125 C 9.6875 -23.609375 8.421875 -20.398438 8.421875 -16.203125 C 8.421875 -11.941406 9.734375 -8.738281 12.359375 -6.59375 C 14.984375 -4.445312 18.789062 -3.375 23.78125 -3.375 C 25.726562 -3.375 27.601562 -3.523438 29.40625 -3.828125 C 31.21875 -4.140625 32.941406 -4.59375 34.578125 -5.1875 L 33.640625 -3.75 L 33.640625 -13.75 L 23.234375 -13.75 L 23.234375 -17.265625 L 37.625 -17.265625 L 37.625 -2.078125 C 36.507812 -1.554688 35.195312 -1.109375 33.6875 -0.734375 C 32.175781 -0.367188 30.546875 -0.0859375 28.796875 0.109375 C 27.054688 0.316406 25.328125 0.421875 23.609375 0.421875 Z M 23.609375 0.421875 "/></g></g></g><g fill="#44d62c" fill-opacity="1"><g transform="translate(273.493797, 100.10008)"><g><path d="M 22.40625 0.421875 C 19.53125 0.421875 16.953125 0.0351562 14.671875 -0.734375 C 12.390625 -1.503906 10.4375 -2.613281 8.8125 -4.0625 C 7.195312 -5.519531 5.957031 -7.273438 5.09375 -9.328125 C 4.226562 -11.378906 3.796875 -13.703125 3.796875 -16.296875 C 3.796875 -18.847656 4.226562 -21.15625 5.09375 -23.21875 C 5.957031 -25.289062 7.195312 -27.0625 8.8125 -28.53125 C 10.4375 -30 12.394531 -31.117188 14.6875 -31.890625 C 16.988281 -32.660156 19.5625 -33.046875 22.40625 -33.046875 C 25.238281 -33.046875 27.796875 -32.648438 30.078125 -31.859375 C 32.359375 -31.078125 34.3125 -29.96875 35.9375 -28.53125 C 37.5625 -27.09375 38.800781 -25.335938 39.65625 -23.265625 C 40.519531 -21.203125 40.953125 -18.894531 40.953125 -16.34375 C 40.953125 -13.75 40.519531 -11.425781 39.65625 -9.375 C 38.800781 -7.320312 37.5625 -5.5625 35.9375 -4.09375 C 34.3125 -2.625 32.359375 -1.503906 30.078125 -0.734375 C 27.796875 0.0351562 25.238281 0.421875 22.40625 0.421875 Z M 22.40625 -3.421875 C 25.269531 -3.421875 27.742188 -3.929688 29.828125 -4.953125 C 31.910156 -5.972656 33.515625 -7.445312 34.640625 -9.375 C 35.765625 -11.300781 36.328125 -13.625 36.328125 -16.34375 C 36.328125 -19.050781 35.769531 -21.367188 34.65625 -23.296875 C 33.550781 -25.222656 31.957031 -26.6875 29.875 -27.6875 C 27.789062 -28.695312 25.300781 -29.203125 22.40625 -29.203125 C 19.46875 -29.203125 16.960938 -28.691406 14.890625 -27.671875 C 12.828125 -26.660156 11.234375 -25.1875 10.109375 -23.25 C 8.984375 -21.320312 8.421875 -19.003906 8.421875 -16.296875 C 8.421875 -13.578125 8.972656 -11.257812 10.078125 -9.34375 C 11.191406 -7.4375 12.796875 -5.972656 14.890625 -4.953125 C 16.992188 -3.929688 19.5 -3.421875 22.40625 -3.421875 Z M 22.40625 -3.421875 "/></g></g></g><g fill="#44d62c" fill-opacity="1"><g transform="translate(318.237982, 100.10008)"><g><path d="M 5.421875 0 L 5.421875 -32.625 L 9.203125 -32.625 L 34.796875 -5.5 L 34.15625 -5.5 L 34.15625 -32.625 L 38.453125 -32.625 L 38.453125 0 L 34.578125 0 L 9.125 -27.078125 L 9.71875 -27.078125 L 9.71875 0 Z M 5.421875 0 "/></g></g></g><g fill="#ff6b26" fill-opacity="1"><g transform="translate(169.326226, 123.720071)"><g><path d="M 1.28125 -17.25 L 4.984375 -17.25 L 10.28125 -5.703125 L 15.625 -17.25 L 19.296875 -17.25 L 19.296875 0 L 15.71875 0 L 15.71875 -9.796875 L 11.15625 0 L 9.421875 0 L 4.890625 -9.796875 L 4.890625 0 L 1.28125 0 Z M 1.28125 -17.25 "/></g></g></g><g fill="#ff6b26" fill-opacity="1"><g transform="translate(189.424592, 123.720071)"><g><path d="M 1.28125 -17.25 L 5.03125 -17.25 L 5.03125 0 L 1.28125 0 Z M 1.28125 -17.25 "/></g></g></g><g fill="#ff6b26" fill-opacity="1"><g transform="translate(195.269016, 123.720071)"><g><path d="M 10.109375 0.375 C 8.273438 0.375 6.648438 0.0078125 5.234375 -0.71875 C 3.816406 -1.457031 2.722656 -2.5 1.953125 -3.84375 C 1.179688 -5.195312 0.796875 -6.785156 0.796875 -8.609375 C 0.796875 -10.429688 1.179688 -12.019531 1.953125 -13.375 C 2.722656 -14.738281 3.816406 -15.785156 5.234375 -16.515625 C 6.648438 -17.242188 8.273438 -17.609375 10.109375 -17.609375 C 12.492188 -17.609375 14.488281 -17.066406 16.09375 -15.984375 L 16.09375 -12.4375 C 15.363281 -13.039062 14.535156 -13.476562 13.609375 -13.75 C 12.679688 -14.019531 11.625 -14.15625 10.4375 -14.15625 C 8.644531 -14.15625 7.222656 -13.65625 6.171875 -12.65625 C 5.128906 -11.664062 4.609375 -10.316406 4.609375 -8.609375 C 4.609375 -6.878906 5.132812 -5.515625 6.1875 -4.515625 C 7.238281 -3.523438 8.65625 -3.03125 10.4375 -3.03125 C 11.65625 -3.03125 12.734375 -3.171875 13.671875 -3.453125 C 14.609375 -3.742188 15.476562 -4.210938 16.28125 -4.859375 L 16.28125 -1.3125 C 14.769531 -0.1875 12.710938 0.375 10.109375 0.375 Z M 10.109375 0.375 "/></g></g></g><g fill="#ff6b26" fill-opacity="1"><g transform="translate(211.865545, 123.720071)"><g><path d="M 1.28125 -17.25 L 8.765625 -17.25 C 10.710938 -17.25 12.234375 -16.757812 13.328125 -15.78125 C 14.421875 -14.800781 14.96875 -13.390625 14.96875 -11.546875 C 14.96875 -10.265625 14.671875 -9.175781 14.078125 -8.28125 C 13.492188 -7.382812 12.660156 -6.726562 11.578125 -6.3125 L 14.859375 0 L 11 0 L 7.96875 -5.84375 L 5.03125 -5.84375 L 5.03125 0 L 1.28125 0 Z M 8.09375 -8.984375 C 9.039062 -8.984375 9.789062 -9.1875 10.34375 -9.59375 C 10.894531 -10.007812 11.171875 -10.660156 11.171875 -11.546875 C 11.171875 -12.484375 10.898438 -13.144531 10.359375 -13.53125 C 9.816406 -13.914062 9.0625 -14.109375 8.09375 -14.109375 L 5.03125 -14.109375 L 5.03125 -8.984375 Z M 8.09375 -8.984375 "/></g></g></g><g fill="#ff6b26" fill-opacity="1"><g transform="translate(227.155054, 123.720071)"><g><path d="M 10.015625 0.375 C 8.285156 0.375 6.71875 -0.00390625 5.3125 -0.765625 C 3.90625 -1.523438 2.800781 -2.582031 2 -3.9375 C 1.195312 -5.289062 0.796875 -6.847656 0.796875 -8.609375 C 0.796875 -10.367188 1.195312 -11.929688 2 -13.296875 C 2.800781 -14.660156 3.90625 -15.71875 5.3125 -16.46875 C 6.71875 -17.226562 8.285156 -17.609375 10.015625 -17.609375 C 11.742188 -17.609375 13.300781 -17.226562 14.6875 -16.46875 C 16.082031 -15.71875 17.179688 -14.660156 17.984375 -13.296875 C 18.785156 -11.929688 19.1875 -10.367188 19.1875 -8.609375 C 19.1875 -6.847656 18.785156 -5.289062 17.984375 -3.9375 C 17.179688 -2.582031 16.082031 -1.523438 14.6875 -0.765625 C 13.300781 -0.00390625 11.742188 0.375 10.015625 0.375 Z M 10.015625 -3.078125 C 11.003906 -3.078125 11.90625 -3.300781 12.71875 -3.75 C 13.53125 -4.207031 14.175781 -4.851562 14.65625 -5.6875 C 15.132812 -6.519531 15.375 -7.492188 15.375 -8.609375 C 15.375 -9.710938 15.140625 -10.675781 14.671875 -11.5 C 14.203125 -12.332031 13.554688 -12.972656 12.734375 -13.421875 C 11.921875 -13.878906 11.015625 -14.109375 10.015625 -14.109375 C 8.992188 -14.109375 8.078125 -13.878906 7.265625 -13.421875 C 6.453125 -12.972656 5.804688 -12.332031 5.328125 -11.5 C 4.847656 -10.675781 4.609375 -9.710938 4.609375 -8.609375 C 4.609375 -7.492188 4.847656 -6.519531 5.328125 -5.6875 C 5.804688 -4.851562 6.457031 -4.207031 7.28125 -3.75 C 8.101562 -3.300781 9.015625 -3.078125 10.015625 -3.078125 Z M 10.015625 -3.078125 "/></g></g></g><g fill="#ff6b26" fill-opacity="1"><g transform="translate(246.636901, 123.720071)"><g><path d="M 1.28125 -17.25 L 4.984375 -17.25 L 10.28125 -5.703125 L 15.625 -17.25 L 19.296875 -17.25 L 19.296875 0 L 15.71875 0 L 15.71875 -9.796875 L 11.15625 0 L 9.421875 0 L 4.890625 -9.796875 L 4.890625 0 L 1.28125 0 Z M 1.28125 -17.25 "/></g></g></g><g fill="#ff6b26" fill-opacity="1"><g transform="translate(266.735262, 123.720071)"><g><path d="M 10.015625 0.375 C 8.285156 0.375 6.71875 -0.00390625 5.3125 -0.765625 C 3.90625 -1.523438 2.800781 -2.582031 2 -3.9375 C 1.195312 -5.289062 0.796875 -6.847656 0.796875 -8.609375 C 0.796875 -10.367188 1.195312 -11.929688 2 -13.296875 C 2.800781 -14.660156 3.90625 -15.71875 5.3125 -16.46875 C 6.71875 -17.226562 8.285156 -17.609375 10.015625 -17.609375 C 11.742188 -17.609375 13.300781 -17.226562 14.6875 -16.46875 C 16.082031 -15.71875 17.179688 -14.660156 17.984375 -13.296875 C 18.785156 -11.929688 19.1875 -10.367188 19.1875 -8.609375 C 19.1875 -6.847656 18.785156 -5.289062 17.984375 -3.9375 C 17.179688 -2.582031 16.082031 -1.523438 14.6875 -0.765625 C 13.300781 -0.00390625 11.742188 0.375 10.015625 0.375 Z M 10.015625 -3.078125 C 11.003906 -3.078125 11.90625 -3.300781 12.71875 -3.75 C 13.53125 -4.207031 14.175781 -4.851562 14.65625 -5.6875 C 15.132812 -6.519531 15.375 -7.492188 15.375 -8.609375 C 15.375 -9.710938 15.140625 -10.675781 14.671875 -11.5 C 14.203125 -12.332031 13.554688 -12.972656 12.734375 -13.421875 C 11.921875 -13.878906 11.015625 -14.109375 10.015625 -14.109375 C 8.992188 -14.109375 8.078125 -13.878906 7.265625 -13.421875 C 6.453125 -12.972656 5.804688 -12.332031 5.328125 -11.5 C 4.847656 -10.675781 4.609375 -9.710938 4.609375 -8.609375 C 4.609375 -7.492188 4.847656 -6.519531 5.328125 -5.6875 C 5.804688 -4.851562 6.457031 -4.207031 7.28125 -3.75 C 8.101562 -3.300781 9.015625 -3.078125 10.015625 -3.078125 Z M 10.015625 -3.078125 "/></g></g></g><g fill="#ff6b26" fill-opacity="1"><g transform="translate(286.217104, 123.720071)"><g><path d="M 1.28125 -17.25 L 9.75 -17.25 C 11.375 -17.25 12.644531 -16.84375 13.5625 -16.03125 C 14.488281 -15.226562 14.953125 -14.0625 14.953125 -12.53125 C 14.953125 -11.757812 14.769531 -11.054688 14.40625 -10.421875 C 14.039062 -9.785156 13.546875 -9.296875 12.921875 -8.953125 C 13.785156 -8.640625 14.429688 -8.164062 14.859375 -7.53125 C 15.285156 -6.90625 15.5 -6.082031 15.5 -5.0625 C 15.5 -4.019531 15.265625 -3.113281 14.796875 -2.34375 C 14.328125 -1.582031 13.679688 -1 12.859375 -0.59375 C 12.046875 -0.195312 11.148438 0 10.171875 0 L 1.28125 0 Z M 9.03125 -10.234375 C 9.6875 -10.234375 10.203125 -10.394531 10.578125 -10.71875 C 10.960938 -11.050781 11.15625 -11.582031 11.15625 -12.3125 C 11.15625 -13.101562 10.96875 -13.644531 10.59375 -13.9375 C 10.226562 -14.238281 9.664062 -14.390625 8.90625 -14.390625 L 5.03125 -14.390625 L 5.03125 -10.234375 Z M 9.25 -2.859375 C 10.050781 -2.859375 10.660156 -3.019531 11.078125 -3.34375 C 11.503906 -3.664062 11.71875 -4.226562 11.71875 -5.03125 C 11.71875 -5.851562 11.5 -6.445312 11.0625 -6.8125 C 10.625 -7.175781 9.976562 -7.359375 9.125 -7.359375 L 5.03125 -7.359375 L 5.03125 -2.859375 Z M 9.25 -2.859375 "/></g></g></g><g fill="#ff6b26" fill-opacity="1"><g transform="translate(302.024479, 123.720071)"><g><path d="M 1.28125 -17.25 L 5.03125 -17.25 L 5.03125 0 L 1.28125 0 Z M 1.28125 -17.25 "/></g></g></g><g fill="#ff6b26" fill-opacity="1"><g transform="translate(307.868898, 123.720071)"><g><path d="M 1.28125 -17.25 L 5.03125 -17.25 L 5.03125 -3.140625 L 12.921875 -3.140625 L 12.921875 0 L 1.28125 0 Z M 1.28125 -17.25 "/></g></g></g><g fill="#ff6b26" fill-opacity="1"><g transform="translate(320.618338, 123.720071)"><g><path d="M 1.28125 -17.25 L 5.03125 -17.25 L 5.03125 0 L 1.28125 0 Z M 1.28125 -17.25 "/></g></g></g><g fill="#ff6b26" fill-opacity="1"><g transform="translate(326.462757, 123.720071)"><g><path d="M 5.40625 -14.109375 L 0.375 -14.109375 L 0.375 -17.25 L 14.1875 -17.25 L 14.1875 -14.109375 L 9.15625 -14.109375 L 9.15625 0 L 5.40625 0 Z M 5.40625 -14.109375 "/></g></g></g><g fill="#ff6b26" fill-opacity="1"><g transform="translate(340.51922, 123.720071)"><g><path d="M 7.109375 -6.5625 L 0.796875 -17.25 L 4.78125 -17.25 L 8.953125 -10.0625 L 13.265625 -17.25 L 17.25 -17.25 L 10.78125 -6.5625 L 10.78125 0 L 7.109375 0 Z M 7.109375 -6.5625 "/></g></g></g><g fill="#000000" fill-opacity="1"><g transform="translate(358.080681, 123.720071)"><g/></g></g><g fill="#000000" fill-opacity="1"><g transform="translate(169.326226, 147.65624)"><g><path d="M 1.28125 -17.25 L 4.9375 -17.25 L 12.140625 -6.09375 L 12.140625 -17.25 L 15.890625 -17.25 L 15.890625 0 L 12.265625 0 L 5.03125 -11.15625 L 5.03125 0 L 1.28125 0 Z M 1.28125 -17.25 "/></g></g></g><g fill="#000000" fill-opacity="1"><g transform="translate(185.996741, 147.65624)"><g><path d="M 1.28125 -17.25 L 13.25 -17.25 L 13.25 -14.109375 L 5.03125 -14.109375 L 5.03125 -10.109375 L 11.078125 -10.109375 L 11.078125 -7.109375 L 5.03125 -7.109375 L 5.03125 -3.140625 L 13.25 -3.140625 L 13.25 0 L 1.28125 0 Z M 1.28125 -17.25 "/></g></g></g><g fill="#000000" fill-opacity="1"><g transform="translate(199.288722, 147.65624)"><g><path d="M 5.40625 -14.109375 L 0.375 -14.109375 L 0.375 -17.25 L 14.1875 -17.25 L 14.1875 -14.109375 L 9.15625 -14.109375 L 9.15625 0 L 5.40625 0 Z M 5.40625 -14.109375 "/></g></g></g><g fill="#000000" fill-opacity="1"><g transform="translate(213.345188, 147.65624)"><g><path d="M 0.796875 -17.25 L 4.734375 -17.25 L 7.828125 -6.09375 L 10.859375 -17.25 L 13.75 -17.25 L 16.671875 -6.09375 L 19.765625 -17.25 L 23.6875 -17.25 L 18.84375 0 L 15.328125 0 L 12.234375 -10.921875 L 9.171875 0 L 5.625 0 Z M 0.796875 -17.25 "/></g></g></g><g fill="#000000" fill-opacity="1"><g transform="translate(237.339955, 147.65624)"><g><path d="M 10.015625 0.375 C 8.285156 0.375 6.71875 -0.00390625 5.3125 -0.765625 C 3.90625 -1.523438 2.800781 -2.582031 2 -3.9375 C 1.195312 -5.289062 0.796875 -6.847656 0.796875 -8.609375 C 0.796875 -10.367188 1.195312 -11.929688 2 -13.296875 C 2.800781 -14.660156 3.90625 -15.71875 5.3125 -16.46875 C 6.71875 -17.226562 8.285156 -17.609375 10.015625 -17.609375 C 11.742188 -17.609375 13.300781 -17.226562 14.6875 -16.46875 C 16.082031 -15.71875 17.179688 -14.660156 17.984375 -13.296875 C 18.785156 -11.929688 19.1875 -10.367188 19.1875 -8.609375 C 19.1875 -6.847656 18.785156 -5.289062 17.984375 -3.9375 C 17.179688 -2.582031 16.082031 -1.523438 14.6875 -0.765625 C 13.300781 -0.00390625 11.742188 0.375 10.015625 0.375 Z M 10.015625 -3.078125 C 11.003906 -3.078125 11.90625 -3.300781 12.71875 -3.75 C 13.53125 -4.207031 14.175781 -4.851562 14.65625 -5.6875 C 15.132812 -6.519531 15.375 -7.492188 15.375 -8.609375 C 15.375 -9.710938 15.140625 -10.675781 14.671875 -11.5 C 14.203125 -12.332031 13.554688 -12.972656 12.734375 -13.421875 C 11.921875 -13.878906 11.015625 -14.109375 10.015625 -14.109375 C 8.992188 -14.109375 8.078125 -13.878906 7.265625 -13.421875 C 6.453125 -12.972656 5.804688 -12.332031 5.328125 -11.5 C 4.847656 -10.675781 4.609375 -9.710938 4.609375 -8.609375 C 4.609375 -7.492188 4.847656 -6.519531 5.328125 -5.6875 C 5.804688 -4.851562 6.457031 -4.207031 7.28125 -3.75 C 8.101562 -3.300781 9.015625 -3.078125 10.015625 -3.078125 Z M 10.015625 -3.078125 "/></g></g></g><g fill="#000000" fill-opacity="1"><g transform="translate(256.821802, 147.65624)"><g><path d="M 1.28125 -17.25 L 8.765625 -17.25 C 10.710938 -17.25 12.234375 -16.757812 13.328125 -15.78125 C 14.421875 -14.800781 14.96875 -13.390625 14.96875 -11.546875 C 14.96875 -10.265625 14.671875 -9.175781 14.078125 -8.28125 C 13.492188 -7.382812 12.660156 -6.726562 11.578125 -6.3125 L 14.859375 0 L 11 0 L 7.96875 -5.84375 L 5.03125 -5.84375 L 5.03125 0 L 1.28125 0 Z M 8.09375 -8.984375 C 9.039062 -8.984375 9.789062 -9.1875 10.34375 -9.59375 C 10.894531 -10.007812 11.171875 -10.660156 11.171875 -11.546875 C 11.171875 -12.484375 10.898438 -13.144531 10.359375 -13.53125 C 9.816406 -13.914062 9.0625 -14.109375 8.09375 -14.109375 L 5.03125 -14.109375 L 5.03125 -8.984375 Z M 8.09375 -8.984375 "/></g></g></g><g fill="#000000" fill-opacity="1"><g transform="translate(272.111311, 147.65624)"><g><path d="M 1.28125 -17.25 L 5.03125 -17.25 L 5.03125 -9.75 L 11.546875 -17.25 L 16.015625 -17.25 L 8.703125 -8.828125 L 16.5 0 L 12.046875 0 L 5.03125 -7.921875 L 5.03125 0 L 1.28125 0 Z M 1.28125 -17.25 "/></g></g></g></svg>